<svg width="1263" height="5163" viewBox="0 0 1263 5163" fill="none" xmlns="http://www.w3.org/2000/svg">
<g clip-path="url(#clip0)">
<path fill-rule="evenodd" clip-rule="evenodd" d="M244.05 -362.736C310.398 -346.019 329.702 -261.245 383.714 -219.242C434.801 -179.514 528.03 -187.326 548.54 -125.946C569.017 -64.6642 503.691 -9.4313 472.782 47.3085C448.322 92.2106 424.688 135.265 387.266 170.109C344.943 209.516 301.388 252.767 244.05 260.283C183.044 268.279 125.119 240.289 70.6872 211.603C7.6388 178.375 -68.45 149.402 -93.1742 82.5598C-118.068 15.2578 -76.89 -55.8555 -53.3112 -123.63C-30.2788 -189.833 -12.831 -261.467 41.7951 -305.391C97.7758 -350.405 174.393 -380.286 244.05 -362.736Z" fill="#4754EB"/>
<path fill-rule="evenodd" clip-rule="evenodd" d="M150.118 -200.777C192.925 -196.426 241.124 -195.165 270.453 -163.679C300.273 -131.667 294.889 -82.6118 300.599 -39.2329C306.894 8.58569 329.078 59.8158 305.407 101.839C281.467 144.338 229.404 164.089 181.355 172.456C138.637 179.894 99.3655 156.16 57.4634 145.015C15.4568 133.841 -37.0559 141.31 -63.9951 107.194C-90.9157 73.1013 -70.0366 23.7116 -72.5681 -19.6583C-75.1215 -63.4026 -103.875 -111.755 -78.8758 -147.743C-53.8341 -183.791 0.746221 -176.842 43.5023 -186.744C79.2995 -195.035 113.563 -204.492 150.118 -200.777Z" fill="#8633B0"/>
<path fill-rule="evenodd" clip-rule="evenodd" d="M1227.7 744.662C1302.35 716.179 1388.13 690.581 1425.8 620.325C1464.11 548.893 1431.27 464.179 1421 384.195C1409.68 296.024 1425.22 194.083 1362.94 130.747C1299.96 66.6934 1197.33 56.7596 1107.27 65.145C1027.21 72.5998 968.057 133.875 898.239 174.017C828.247 214.258 730.617 226.405 698.468 300.185C666.341 373.916 727.099 451.717 743.06 530.146C759.16 609.251 730.487 709.253 792.294 761.202C854.204 813.238 948.725 774.425 1030.02 771.337C1098.09 768.752 1163.95 768.986 1227.7 744.662Z" fill="#4754EB"/>
<path fill-rule="evenodd" clip-rule="evenodd" d="M992.523 106.899C938.927 156.423 979.403 242.792 965.104 312.433C955.526 359.082 923.114 398.831 922.895 446.015C922.637 501.472 920.119 567.855 963.76 601.592C1007.39 635.321 1074.72 594.634 1129.85 606.002C1198.25 620.107 1253.73 699.982 1320.62 675.18C1385.23 651.225 1396.19 564.649 1415.45 500.11C1432.08 444.402 1442.99 385.228 1423.01 332.139C1404.56 283.118 1348.87 263.197 1312.17 225.704C1271.07 183.718 1251.41 120.444 1195.4 99.6279C1131.6 75.9139 1043.93 59.4007 992.523 106.899Z" fill="#8633B0"/>
<path fill-rule="evenodd" clip-rule="evenodd" d="M1077.18 1427.08C1125.37 1466.77 1175.82 1515.31 1238.67 1512.23C1302.56 1509.09 1348.4 1451.42 1399.62 1411.26C1456.07 1367 1532.29 1335.55 1552.14 1266.42C1572.2 1196.51 1539.8 1121.65 1499.58 1063.03C1463.82 1010.92 1398.95 995.482 1344.57 963.951C1290.06 932.342 1244.35 870.061 1181.19 878.411C1118.07 886.756 1087.67 960.818 1039.71 1004.26C991.332 1048.07 911.425 1069.66 899.251 1133.76C887.057 1197.96 949.965 1247.07 983.187 1301.84C1011 1347.69 1036.03 1393.2 1077.18 1427.08Z" fill="white"/>
<path fill-rule="evenodd" clip-rule="evenodd" d="M1309.94 1869.72C1367.72 1874.79 1425.47 1893.35 1467.24 1933.68C1506.06 1971.16 1507.53 2029.62 1527.53 2079.79C1549.52 2134.93 1601.11 2183.51 1590.11 2241.86C1578.87 2301.47 1527.98 2351.06 1472.03 2374.2C1420.57 2395.48 1365.55 2360.24 1309.94 2357.72C1258.14 2355.36 1203.12 2385.88 1158.2 2359.93C1112.28 2333.4 1093.22 2276.89 1080.68 2225.28C1068.87 2176.62 1082.2 2128.49 1089.99 2079.02C1099.54 2018.38 1086.83 1946.45 1131.25 1904.17C1176.34 1861.27 1248 1864.28 1309.94 1869.72Z" fill="#8633B0"/>
<path fill-rule="evenodd" clip-rule="evenodd" d="M1479.77 2213.79C1447.05 2223.45 1416.14 2230.77 1382.43 2236.01C1334.34 2243.48 1283.03 2275.1 1240.8 2250.91C1198.48 2226.67 1179.76 2169.73 1181.44 2120.87C1182.99 2075.7 1223.91 2044.75 1249.16 2007.28C1269.12 1977.67 1284.1 1945.17 1313.49 1924.92C1344.72 1903.41 1381 1889.57 1418.87 1890.37C1458.98 1891.22 1494.57 1909.87 1529.56 1929.51C1574.73 1954.88 1634.09 1971.49 1650.8 2020.62C1667.65 2070.15 1645.57 2129.37 1610.88 2168.55C1579.43 2204.07 1525.22 2200.37 1479.77 2213.79Z" fill="#EB478B"/>
<path fill-rule="evenodd" clip-rule="evenodd" d="M952.695 2892.93C956.329 2827.92 950.791 2749.09 1000.85 2708.84C1050.94 2668.57 1123.77 2699.06 1187.28 2704.33C1241.25 2708.8 1294.04 2712.38 1342.48 2737.15C1396.04 2764.55 1457.44 2794.39 1476.73 2852.36C1495.89 2909.94 1450.39 2966.42 1438.6 3026.04C1425.66 3091.48 1447.32 3167.98 1404.36 3218.26C1359.74 3270.47 1284.85 3286.71 1217.06 3285.3C1152.17 3283.94 1087.73 3257.45 1041.69 3210.68C1000.16 3168.5 998.09 3104.05 981.976 3046.52C967.579 2995.12 949.71 2946.31 952.695 2892.93Z" fill="#4754EB"/>
<path fill-rule="evenodd" clip-rule="evenodd" d="M1010.96 2965.07C1036.46 2937.72 1061.53 2913.6 1090.36 2889.94C1131.49 2856.18 1162.56 2797.51 1215.34 2797.31C1268.25 2797.11 1316.7 2841.28 1341.61 2889C1364.63 2933.11 1342.96 2985.39 1339.55 3035.24C1336.85 3074.65 1340.39 3114.06 1323.76 3149.71C1306.08 3187.58 1279.5 3220.92 1243.49 3241.09C1205.34 3262.47 1161.8 3264.31 1118.28 3264.85C1062.09 3265.55 997.323 3282.48 954.987 3244.68C912.308 3206.57 900.955 3137.64 912.306 3080.94C922.599 3029.51 975.535 3003.07 1010.96 2965.07Z" fill="#8633B0"/>
<path fill-rule="evenodd" clip-rule="evenodd" d="M-436.129 2839.56C-450.067 2769.69 -479.613 2694.36 -445.593 2631.44C-410.445 2566.44 -335.034 2525.34 -260.627 2514.98C-191.271 2505.32 -126.284 2543.36 -66.1845 2578.59C-17.4263 2607.16 10.9315 2654.72 48.712 2696.27C92.0657 2743.94 155.751 2777.54 171.132 2839.56C188.234 2908.51 176.086 2985.71 135.001 3044.19C93.4367 3103.34 24.0335 3144.64 -48.8723 3152.66C-116.09 3160.05 -173.642 3114.12 -234.28 3084.79C-285.029 3060.25 -337.359 3039.11 -372.866 2995.97C-409.712 2951.2 -424.873 2895.97 -436.129 2839.56Z" fill="white"/>
<circle cx="414" cy="921" r="294" fill="white"/>
<circle cx="207" cy="1060" r="175" fill="#EB478B"/>
<g opacity="0.75">
<path fill-rule="evenodd" clip-rule="evenodd" d="M-130.054 4290.35C-112.709 4214.45 -148.357 4119.75 -90.2769 4065.92C-32.0348 4011.94 66.4382 4017.81 148.239 4032.43C219.318 4045.13 266.001 4105.23 328.544 4140.76C395.309 4178.7 501.33 4177.97 526.552 4247.39C552.016 4317.47 454.706 4371.39 438.214 4442.61C420.76 4517.99 477.217 4608.19 428.817 4669.47C379.305 4732.16 283.086 4750.14 199.176 4745.26C119.328 4740.62 55.3306 4686.68 -11.9108 4643.85C-78.39 4601.51 -164.994 4569.94 -189.031 4498.02C-212.845 4426.76 -146.491 4362.26 -130.054 4290.35Z" fill="#4754EB"/>
<path fill-rule="evenodd" clip-rule="evenodd" d="M-220.07 4328.38C-226.436 4279.36 -240.834 4227.99 -215.825 4183.99C-188.954 4136.71 -138.42 4101.31 -81.8853 4085.26C-25.561 4069.27 35.2953 4078.3 90.5631 4097.01C143.801 4115.03 199.241 4141.67 222.281 4188.2C244.094 4232.27 213.628 4280.8 205.107 4328.38C198.235 4366.75 201.409 4407.02 177.301 4439.35C152.596 4472.47 112.456 4491.71 71.5589 4507.47C26.7142 4524.75 -20.9035 4544.69 -68.2478 4533.99C-116.851 4523 -153.621 4487.72 -181.242 4450.32C-207.937 4414.16 -214.482 4371.41 -220.07 4328.38Z" fill="#8633B0"/>
</g>
<path fill-rule="evenodd" clip-rule="evenodd" d="M695.742 3507.49C692.13 3564.32 634.253 3603.8 603.904 3654.48C565.533 3718.57 571.499 3813.66 494.652 3843.35C418.849 3872.63 338.984 3810.02 260.147 3787.3C182.537 3764.93 90.6527 3764.7 37.4425 3711.57C-17.1677 3657.04 -32.1887 3578.46 -20.0709 3507.49C-8.84571 3441.74 50.7412 3393.6 100.464 3342.47C146.651 3294.97 189.359 3241.52 257.857 3221.67C326.821 3201.68 402.954 3211.82 470.428 3235.23C534.52 3257.45 583.455 3300.22 623.357 3348.43C662.772 3396.06 699.442 3449.27 695.742 3507.49Z" fill="white"/>
<g opacity="0.75">
<path fill-rule="evenodd" clip-rule="evenodd" d="M970.883 3611.68C978.741 3670.03 1015.42 3716.78 1048.72 3765.23C1082.95 3815.04 1113.14 3869.27 1166.81 3896.74C1226.26 3927.18 1295.06 3939.65 1360.08 3924.62C1428.74 3908.74 1490.88 3868.64 1533.22 3812.02C1576 3754.81 1613.34 3680.58 1594.07 3611.68C1575.34 3544.7 1491.86 3525.56 1440.17 3479.3C1403.01 3446.05 1374.54 3408.19 1334.12 3379.05C1274.15 3335.81 1221.22 3258.66 1148.1 3268.72C1076.17 3278.61 1036.32 3359.85 1002.85 3424.62C973.112 3482.17 962.228 3547.41 970.883 3611.68Z" fill="#8633B0"/>
<path fill-rule="evenodd" clip-rule="evenodd" d="M1207.27 3767.58C1166.08 3731.61 1147.26 3678.53 1132.49 3625.72C1119.61 3579.67 1118.43 3532.54 1128.46 3485.78C1138.46 3439.13 1156.65 3394.83 1189.4 3360.3C1224.12 3323.68 1269.57 3303.04 1317.21 3286.74C1378.2 3265.87 1440.58 3236.09 1502.76 3253.06C1573.38 3272.33 1643.82 3316.31 1672.92 3383.82C1701.95 3451.16 1685.76 3532.83 1651.23 3597.49C1621.1 3653.9 1548.4 3665.46 1500.17 3707.29C1453.57 3747.72 1435.07 3824.9 1374.77 3837.31C1314.08 3849.8 1254.04 3808.42 1207.27 3767.58Z" fill="#EB478B"/>
</g>
</g>
<defs>
<clipPath id="clip0">
<rect y="-789" width="1392" height="5952" rx="24" fill="white"/>
</clipPath>
</defs>
</svg>
